<svg viewBox="0 0 135.13 60" xmlns="http://www.w3.org/2000/svg"><path d="m22.56 23.88h3.35l2.55 15.28 7.94-15.28h3.49l-10.16 19.38h-3.82z"/><path d="m53 43.26h-3.32l-.68-4.54h-7.71l-2.29 4.54h-3.52l10.16-19.38h4zm-10.27-7.39h5.76l-1.39-8.5z"/><path d="m58.22 23.88h8c3.88 0 5.62 1.83 5.46 5-.14 3.74-1.94 6.06-4.79 7l2.55 7.34h-3.44l-2.38-6.9h-4.29l-1.22 6.9h-3.29zm1.61 9.61h4.37c1.91 0 3.82-.89 4-4 .16-1.82-.72-2.71-2.6-2.71h-4.6z"/><path d="m78.36 29.92-2.36 13.34h-3.28l3.4-19.38h3.07l6.23 13.34 2.36-13.34h3.29l-3.41 19.38h-3.07z"/><path d="m95.37 23.88h3.29l-3.4 19.38h-3.26z"/><path d="m108.7 35.34-3.32-.61c-3.07-.58-4.24-2.24-4.24-4.34 0-3.41 2.33-6.79 8.09-6.79 4.48 0 7 2 6.25 6.23h-3.29c.41-2.35-.78-3.35-3.27-3.35s-4.29 1-4.29 3.21c0 1 .64 1.75 2.08 2l3.32.61c3.18.61 4.23 2.27 4.23 4.27 0 3.71-2.52 6.94-8.13 6.94-4.49 0-7.12-2-6.37-6.22h3.29c-.41 2.35.86 3.35 3.35 3.35s4.38-1 4.38-3.33c0-.92-.61-1.69-2.08-1.97z"/><path d="m129.87 35h-8.36l-1.44 8.25h-3.29l3.4-19.38h3.29l-1.47 8.26h8.36l1.46-8.25h3.3l-3.41 19.38h-3.29z"/><g fill="#0072ce"><path d="m12.5 13.37a10 10 0 1 0 5.99-12.77 10 10 0 0 0 -5.99 12.77z"/><path d="m4.44 30.36a7.2 7.2 0 1 0 9.82-2.73 7.21 7.21 0 0 0 -9.82 2.73z"/><path d="m.08 17.89a4.17 4.17 0 1 0 4.92-3.26 4.19 4.19 0 0 0 -4.92 3.26z"/></g><path d="m28.8 54.92-2.13-.38c-2-.36-3.14-1.46-3.14-3.31 0-2.39 1.65-3.59 4.44-3.59s4.43 1.22 4.43 3.64v.22h-2v-.22c0-1.24-.84-1.87-2.39-1.87s-2.35.55-2.35 1.68c0 .88.62 1.41 1.55 1.58l2.13.38c2 .38 3.14 1.47 3.14 3.29-.04 2.46-1.74 3.66-4.48 3.66s-4.48-1.22-4.48-3.64v-.22h2v.22c0 1.24.89 1.85 2.44 1.85s2.38-.51 2.38-1.71c0-.89-.62-1.41-1.54-1.58z"/><path d="m47.11 55.66c0 2.83-1.83 4.34-4.74 4.34s-4.7-1.51-4.7-4.34v-3.66c0-2.82 1.84-4.33 4.74-4.33s4.7 1.51 4.7 4.33zm-2-3.69a2.39 2.39 0 0 0 -2.66-2.56 2.41 2.41 0 0 0 -2.74 2.59v3.69a2.38 2.38 0 0 0 2.66 2.55 2.39 2.39 0 0 0 2.7-2.55z"/><path d="m52.6 47.81h7.73v1.77h-5.68v3.78h4.82v1.76h-4.82v4.71h-2z"/><path d="m63.9 47.81h9.39v1.77h-3.68v10.25h-2v-10.25h-3.71z"/><path d="m76.79 47.81h2.09l2.2 9.41 2.26-9.41h2l2.23 9.41 2.21-9.41h2l-3.07 12h-2.3l-2.13-8.29-2.13 8.29h-2.3z"/><path d="m105.33 59.83h-2.21l-1-2.82h-4.69l-.94 2.82h-2l4.19-12h2.49zm-7.33-4.58h3.64l-1.84-5.25z"/><path d="m109.88 47.81h4.94c2.4 0 4 1.15 4 3.86 0 2-.8 3.11-2.16 3.61l2.28 4.55h-2.35l-2.06-4.28h-2.59v4.28h-2zm2 6h2.83c1.19 0 1.94-.59 1.94-2.12s-.75-2.09-1.94-2.09h-2.83z"/><path d="m124.12 47.81h8.07v1.77h-6v3.35h5.16v1.77h-5.16v3.3h6v1.79h-8.07z"/></svg>